<?xml version="1.0" encoding="UTF-8"?>
<!DOCTYPE svg PUBLIC "-//W3C//DTD SVG 1.1//EN" "http://www.w3.org/Graphics/SVG/1.1/DTD/svg11.dtd">
<svg xmlns="http://www.w3.org/2000/svg" version="1.1" width="512px" height="512px" style="shape-rendering:geometricPrecision; text-rendering:geometricPrecision; image-rendering:optimizeQuality; fill-rule:evenodd; clip-rule:evenodd" xmlns:xlink="http://www.w3.org/1999/xlink">
<g><path style="opacity:1" fill="#4fcd88" d="M -0.5,-0.5 C 0.166667,-0.5 0.833333,-0.5 1.5,-0.5C 66.132,64.6321 130.965,129.632 196,194.5C 196.499,198.152 196.665,201.818 196.5,205.5C 195.624,205.369 194.957,205.702 194.5,206.5C 174.567,243.607 154.401,280.607 134,317.5C 128.877,327.411 124.044,337.411 119.5,347.5C 116.421,353.327 113.588,359.327 111,365.5C 107.419,386.339 114.919,401.339 133.5,410.5C 134.671,411.345 136.005,412.011 137.5,412.5C 137.611,413.117 137.944,413.617 138.5,414C 216.167,414.667 293.833,414.667 371.5,414C 375.217,411.872 379.217,410.539 383.5,410C 386.311,408.516 388.311,406.349 389.5,403.5C 391.147,400.527 393.147,397.86 395.5,395.5C 396.239,395.369 396.906,395.536 397.5,396C 435.368,434.035 473.368,471.868 511.5,509.5C 511.5,510.167 511.5,510.833 511.5,511.5C 340.833,511.5 170.167,511.5 -0.5,511.5C -0.5,340.833 -0.5,170.167 -0.5,-0.5 Z"/></g>
<g><path style="opacity:1" fill="#48ba7b" d="M 1.5,-0.5 C 171.5,-0.5 341.5,-0.5 511.5,-0.5C 511.5,169.5 511.5,339.5 511.5,509.5C 473.368,471.868 435.368,434.035 397.5,396C 396.906,395.536 396.239,395.369 395.5,395.5C 397.135,392.57 398.468,389.57 399.5,386.5C 400.117,386.611 400.617,386.944 401,387.5C 401.91,378.756 401.576,370.089 400,361.5C 372.167,309.833 344.333,258.167 316.5,206.5C 316.043,205.702 315.376,205.369 314.5,205.5C 313.668,173.003 313.168,140.336 313,107.5C 310.448,103.281 306.948,100.114 302.5,98C 270.833,97.3333 239.167,97.3333 207.5,98C 203,99.8333 199.833,103 198,107.5C 197.832,140.336 197.332,173.003 196.5,205.5C 196.665,201.818 196.499,198.152 196,194.5C 130.965,129.632 66.132,64.6321 1.5,-0.5 Z"/></g>
<g><path style="opacity:1" fill="#fefefe" d="M 314.5,205.5 C 343.276,258.721 371.776,312.054 400,365.5C 400.675,372.528 400.508,379.528 399.5,386.5C 398.468,389.57 397.135,392.57 395.5,395.5C 393.147,397.86 391.147,400.527 389.5,403.5C 386.556,405.311 383.556,407.144 380.5,409C 377.061,410.09 373.727,411.256 370.5,412.5C 293.833,412.667 217.166,412.5 140.5,412C 138.26,411.023 135.927,410.523 133.5,410.5C 114.919,401.339 107.419,386.339 111,365.5C 113.588,359.327 116.421,353.327 119.5,347.5C 145.165,300.17 170.832,252.836 196.5,205.5C 197.332,173.003 197.832,140.336 198,107.5C 199.833,103 203,99.8333 207.5,98C 239.167,97.3333 270.833,97.3333 302.5,98C 306.948,100.114 310.448,103.281 313,107.5C 313.168,140.336 313.668,173.003 314.5,205.5 Z"/></g>
<g><path style="opacity:1" fill="#a45fda" d="M 226.5,212.5 C 241.122,211.939 246.622,218.605 243,232.5C 235.658,241.295 227.991,241.628 220,233.5C 215.797,224.564 217.964,217.564 226.5,212.5 Z"/></g>
<g><path style="opacity:1" fill="#54ac7b" d="M 314.5,205.5 C 315.376,205.369 316.043,205.702 316.5,206.5C 344.333,258.167 372.167,309.833 400,361.5C 401.576,370.089 401.91,378.756 401,387.5C 400.617,386.944 400.117,386.611 399.5,386.5C 400.508,379.528 400.675,372.528 400,365.5C 371.776,312.054 343.276,258.721 314.5,205.5 Z"/></g>
<g><path style="opacity:1" fill="#a25cd9" d="M 251.5,273.5 C 252.162,277.466 252.495,281.466 252.5,285.5C 249.651,296.929 242.318,302.595 230.5,302.5C 219.509,301.838 212.843,296.171 210.5,285.5C 210.467,281.131 210.8,276.798 211.5,272.5C 219.59,258.893 230.59,256.06 244.5,264C 247.848,266.501 250.182,269.668 251.5,273.5 Z"/></g>
<g><path style="opacity:1" fill="#c191e5" d="M 211.5,272.5 C 210.8,276.798 210.467,281.131 210.5,285.5C 209.84,284.036 209.507,282.369 209.5,280.5C 209.382,277.514 210.048,274.848 211.5,272.5 Z"/></g>
<g><path style="opacity:1" fill="#d2b0ed" d="M 251.5,273.5 C 252.926,275.679 253.592,278.179 253.5,281C 253.492,282.707 253.158,284.207 252.5,285.5C 252.495,281.466 252.162,277.466 251.5,273.5 Z"/></g>
<g><path style="opacity:1" fill="#59b883" d="M 196.5,205.5 C 170.832,252.836 145.165,300.17 119.5,347.5C 124.044,337.411 128.877,327.411 134,317.5C 154.401,280.607 174.567,243.607 194.5,206.5C 194.957,205.702 195.624,205.369 196.5,205.5 Z"/></g>
<g><path style="opacity:1" fill="#a45fda" d="M 265.5,293.5 C 280.3,293.789 285.134,300.789 280,314.5C 270.79,323.265 262.79,322.265 256,311.5C 254.213,302.808 257.38,296.808 265.5,293.5 Z"/></g>
<g><path style="opacity:1" fill="#dec4f1" d="M 199.5,311.5 C 203.162,311.723 206.495,312.723 209.5,314.5C 205.838,314.277 202.505,313.277 199.5,311.5 Z"/></g>
<g><path style="opacity:1" fill="#a25bd9" d="M 199.5,311.5 C 202.505,313.277 205.838,314.277 209.5,314.5C 223.991,320.75 238.657,326.417 253.5,331.5C 255.515,332.924 257.848,333.59 260.5,333.5C 263.311,334.475 266.311,335.142 269.5,335.5C 271.81,336.164 274.31,336.497 277,336.5C 280.805,336.696 284.305,336.03 287.5,334.5C 299.936,331.975 311.603,327.475 322.5,321C 330.022,319.396 336.189,321.563 341,327.5C 346.921,337.673 352.587,348.006 358,358.5C 359.748,366.41 357.248,372.577 350.5,377C 287.891,378.656 225.224,378.989 162.5,378C 153.823,373.81 150.657,366.976 153,357.5C 160,344.833 167,332.167 174,319.5C 176.167,316 179,313.167 182.5,311C 188.204,310.313 193.87,310.479 199.5,311.5 Z"/></g>
<g><path style="opacity:1" fill="#dfc6f2" d="M 253.5,331.5 C 256.152,331.41 258.485,332.076 260.5,333.5C 257.848,333.59 255.515,332.924 253.5,331.5 Z"/></g>
<g><path style="opacity:1" fill="#b379e0" d="M 287.5,334.5 C 284.305,336.03 280.805,336.696 277,336.5C 274.31,336.497 271.81,336.164 269.5,335.5C 275.536,335.64 281.536,335.307 287.5,334.5 Z"/></g>
<g><path style="opacity:1" fill="#baebd0" d="M 133.5,410.5 C 135.927,410.523 138.26,411.023 140.5,412C 217.166,412.5 293.833,412.667 370.5,412.5C 292.961,413.829 215.294,413.829 137.5,412.5C 136.005,412.011 134.671,411.345 133.5,410.5 Z"/></g>
<g><path style="opacity:1" fill="#5cd191" d="M 389.5,403.5 C 388.311,406.349 386.311,408.516 383.5,410C 379.217,410.539 375.217,411.872 371.5,414C 293.833,414.667 216.167,414.667 138.5,414C 137.944,413.617 137.611,413.117 137.5,412.5C 215.294,413.829 292.961,413.829 370.5,412.5C 373.727,411.256 377.061,410.09 380.5,409C 383.556,407.144 386.556,405.311 389.5,403.5 Z"/></g>
</svg>
